<svg width="28829" height="7000" xmlns="http://www.w3.org/2000/svg">
 <defs>
  <style type="text/css">
   <![CDATA[
    .fil1 {fill:none}
    .fil0 {fill:#898989}
    .fil2 {fill:black;fill-rule:nonzero}
   ]]>
  </style>
 </defs>
 <g>
  <title>background</title>
  <rect fill="none" id="canvas_background" height="7002" width="28831" y="-1" x="-1"/>
 </g>
 <g>
  <title>Layer 1</title>
  <g id="Слой_x0020_1">
   <metadata transform="translate(-60.00117874145508,-1580.031005859375) translate(-60.00117492675781,-1480.029052734375) translate(-520.0101928710938,-3840.075439453125) translate(1,1) " id="CorelCorpID_0Corel-Layer"/>
   <path id="svg_1" d="m15777.987453,3132.604502l0,-1691.91l572.01,0l1339.36,1938.62l1340.79,-1938.62l584.26,0l0,2525.07l-486.24,0l0,-1819.48l-1270.46,1819.48l-323.07,0l-1270.46,-1819.48l0,986.32l-486.19,0zm-11290.16,-1229.86l-1833.5,0l0,576l1833,0l-0.23,1486.71l-2291.29,8.44l0.03,-459.61l1837.18,0.03l0,-575.95l-1837.23,0l0.05,-1495.16l2290.22,0l1.77,459.54zm2000.27,2063.03l-389.87,0l0,-2061.17l-1148.64,0l0,-463.91l2789.91,0l0,463.91l-1148.67,0l0,2061.17l-102.73,0zm1727.52,-102.72l0,-2422.36l2490.01,0l0,463.91l-2003.77,0l0,522.01l1919.74,0l0,463.9l-1919.74,0l0,611.36l2003.77,0l0,463.9l-2490.01,0l0,-102.72zm3144.28,0l0,-2422.36l2489.99,0l0,463.91l-2003.75,0l0,522.01l1919.72,0l0,463.9l-1919.72,0l0,611.36l2003.75,0l0,463.9l-2489.99,0l0,-102.72zm3141.1,0l0,-2422.36l492.6,0l0,2064.38l1802.74,0l0,460.7l-2295.34,0l0,-102.72zm6666.74,-858.93l1206.2,0l-608,-1027.87l-598.2,1027.87zm-1032.31,807.55l1376.28,-2370.98l500.56,0l1469.21,2525.07l-541.58,0l-304.14,-510.52l-1727.88,0l-296.24,510.52l-565.64,0l89.43,-154.09zm4166.8,154.09l-389.89,0l0,-2525.07l597.32,0l1952.01,1913.41l0,-1913.41l492.62,0l0,2525.07l-564.91,0l-1984.43,-1944.79l0,1944.79l-102.72,0z" class="fil0"/>
   <rect id="svg_2" height="18979.78" width="27728.82" y="-6086.375498" x="460.247453" class="fil1"/>
   <path id="svg_3" d="m5949.217453,4855.394502l90.23,0l0,910.86l-90.23,0l0,-910.86zm-329.5,0l90.24,0l0,910.86l-90.24,0l0,-910.86zm79.55,420.36l280.1,0l0,84.04l-280.1,0l0,-84.04zm989.91,-420.36l90.23,0l0,910.86l-90.23,0l0,-910.86zm62,826.83l328.86,0l0,84.03l-328.86,0l0,-84.03zm0,-410.32l297.65,0l0,84.04l-297.65,0l0,-84.04zm0,-416.51l328.86,0l0,84.03l-328.86,0l0,-84.03zm1013.24,473.6l194.15,0c18.39,0 34.21,-4.06 47.47,-12.18c13.45,-8.13 23.52,-20.09 30.57,-35.71c6.83,-15.61 10.26,-34.64 10.26,-56.67l0,-177.25c0,-23.09 -3.43,-42.55 -10.26,-58.58c-7.05,-16.03 -17.12,-28.44 -30.15,-36.78c-13.26,-8.35 -29.08,-12.4 -47.89,-12.4l-194.15,0l0,-84.03l189.66,0c38.48,0 71.41,7.49 98.77,22.67c27.37,14.96 48.12,36.76 62.66,65.41c14.33,28.66 21.59,63.09 21.59,103.71l0,178.55c0,39.55 -7.26,73.33 -21.59,101.34c-14.54,28.02 -35.29,49.39 -62.66,63.93c-27.36,14.54 -60.29,22.03 -98.77,22.03l-189.66,0l0,-84.04zm-65.86,-473.6l90.23,0l0,910.86l-90.23,0l0,-910.86zm1589.9,423.58l183.02,-423.58l100.71,0l-222.37,504.4l-61.36,-80.82zm-0.64,67.56l84.02,-47.04l238.62,466.76l-111.61,0l-211.03,-419.72zm-309.4,-47.04l83.81,47.04l-211.04,419.72l-111.39,0l238.62,-466.76zm-200.56,-444.1l100.92,0l183.02,423.58l-61.58,80.82l-222.36,-504.4zm199.92,416.51l394.7,0l0,84.04l-394.7,0l0,-84.04zm152.24,-416.51l90.22,0l0,910.86l-90.22,0l0,-910.86zm1227.89,0l109.05,0l210.4,910.86l-100.07,0l-164.86,-809.94l-164.63,809.94l-100.28,0l210.39,-910.86zm-93.22,605.75l309.39,0l0,84.03l-309.39,0l0,-84.03zm1093.83,221.08l177.25,0c27.16,0 48.11,-6.84 63.29,-20.52c14.97,-13.9 22.46,-33.15 22.46,-57.73l0,-161.01c0,-22.88 -4.07,-42.77 -12.18,-59.44c-8.13,-16.68 -19.26,-29.5 -33.15,-38.27c-14.11,-8.77 -29.73,-13.05 -46.83,-13.05l-170.84,0l0,-84.03l170.84,0c25.44,0 45.33,-8.76 59.23,-26.29c14.11,-17.54 20.96,-42.13 20.96,-73.99l0,-130.85c0,-24.59 -6.85,-43.62 -20.96,-57.31c-13.9,-13.47 -33.36,-20.31 -57.95,-20.31l-172.12,0l0,-84.03l169.12,0c36.15,0 67.14,6.19 93.02,18.6c25.66,12.18 45.32,29.93 58.8,53.24c13.47,23.1 20.31,51.11 20.31,84.25l0,122.08c0,28.87 -3.2,54.32 -10.05,76.33c-6.62,22.25 -16.24,40.42 -28.65,54.54c-12.61,14.32 -27.79,23.94 -45.75,28.86c20.31,4.28 37.85,13.69 52.17,28.23c14.54,14.54 25.44,33.57 32.93,57.09c7.48,23.3 11.33,50.45 11.33,81.25l0,146.02c0,33.79 -6.62,62.67 -19.67,86.83c-13.26,23.94 -32.29,42.32 -57.09,54.73c-24.8,12.62 -54.96,18.81 -90.45,18.81l-186.02,0l0,-84.03zm-75.27,-826.83l90.24,0l0,910.86l-90.24,0l0,-910.86zm1062.62,0l90.23,0l0,910.86l-90.23,0l0,-910.86zm62.01,826.83l328.85,0l0,84.03l-328.85,0l0,-84.03zm0,-410.32l297.64,0l0,84.04l-297.64,0l0,-84.04zm0,-416.51l328.85,0l0,84.03l-328.85,0l0,-84.03zm1010.66,416.51l222.37,0l0,84.04l-222.37,0l0,-84.04zm41.27,494.35l-90.23,0l0,-910.86l90.23,0l0,910.86zm352.16,9.41c-47.68,0 -88.31,-8.98 -122.31,-26.94c-33.78,-17.95 -59.43,-44.05 -77.18,-78.26c-17.75,-34.2 -26.74,-75.69 -26.74,-124.01l0,-471.04c0,-48.54 8.99,-89.81 26.74,-124.23c17.75,-34.21 43.4,-60.3 77.18,-78.25c34,-17.97 74.63,-26.95 122.31,-26.95c47.47,0 88.3,8.98 122.1,26.95c33.78,17.95 59.65,44.04 77.4,78.25c17.73,34.42 26.5,75.69 26.5,124.23l0,471.04c0,48.32 -8.77,89.81 -26.5,124.01c-17.75,34.21 -43.62,60.31 -77.4,78.26c-33.8,17.96 -74.63,26.94 -122.1,26.94zm0,-88.31c28.65,0 53.24,-5.35 73.55,-16.03c20.32,-10.69 35.71,-26.08 46.4,-46.62c10.69,-20.52 15.82,-45.11 15.82,-73.97l0,-479.82c0,-28.86 -5.13,-53.45 -15.82,-73.97c-10.69,-20.32 -26.08,-35.93 -46.4,-46.61c-20.31,-10.69 -44.9,-16.04 -73.55,-16.04c-28.86,0 -53.45,5.35 -73.77,16.04c-20.1,10.68 -35.7,26.29 -46.18,46.61c-10.69,20.52 -16.04,45.11 -16.04,73.97l0,479.82c0,28.86 5.35,53.45 16.04,73.97c10.48,20.54 26.08,35.93 46.18,46.62c20.32,10.68 44.91,16.03 73.77,16.03zm942.88,-5.13l411.6,0l0,84.03l-411.6,0l0,-84.03zm380.18,-826.83l90.21,0l0,910.86l-90.21,0l0,-910.86zm-459.72,0l90.23,0l0,910.86l-90.23,0l0,-910.86zm229.85,0l90.23,0l0,910.86l-90.23,0l0,-910.86zm316.46,826.83l89.58,0l0,272.63l-89.58,0l0,-272.63zm899.46,-826.83l109.05,0l210.4,910.86l-100.07,0l-164.86,-809.94l-164.63,809.94l-100.28,0l210.39,-910.86zm-93.21,605.75l309.38,0l0,84.03l-309.38,0l0,-84.03zm1234.72,-61.37c-48.53,0 -90,-8.35 -124.65,-25.02c-34.64,-16.68 -61.14,-41.05 -79.32,-72.9c-18.18,-32.08 -27.16,-70.35 -27.16,-115.04l0,-125.3c0,-43.41 8.98,-80.61 27.16,-111.82c18.18,-31.02 44.68,-54.75 79.32,-70.78c34.65,-16.03 76.12,-24.16 124.65,-24.16l150.96,0l0,84.02l-161.65,0c-27.14,0 -50.45,5.36 -70.12,16.05c-19.68,10.47 -34.65,26.08 -44.91,46.61c-10.26,20.52 -15.18,44.9 -15.18,73.34l0,111.39c0,27.16 4.92,50.25 15.18,69.5c10.26,19.24 25.23,33.99 44.91,43.83c19.67,10.04 42.98,15.18 70.12,15.18l161.65,0l0,85.1l-150.96,0zm-67.78,-56.88l74.63,28.65l-143.47,394.71l-95.15,0l163.99,-423.36zm184.32,-488.14l90.23,0l0,911.5l-90.23,0l0,-911.5zm1725.67,920.91c-44.27,0 -82.33,-9.19 -113.97,-27.58c-31.65,-18.39 -56.02,-44.9 -72.71,-79.76c-16.67,-35.06 -25.01,-76.76 -25.01,-125.72l0,-462.92c0,-49.17 8.34,-91.29 25.01,-126.14c16.69,-34.87 40.85,-61.58 72.5,-79.97c31.42,-18.39 69.48,-27.59 114.18,-27.59c44.68,0 82.95,9.2 114.6,27.59c31.85,18.39 56.01,45.1 72.49,79.97c16.45,34.85 24.58,76.76 24.58,125.5l0,33.15l-90.02,0l0,-33.15c0,-30.79 -4.7,-57.09 -14.11,-78.9c-9.41,-21.8 -23.31,-38.27 -41.48,-49.81c-18.17,-11.56 -40.2,-17.12 -66.06,-17.12c-25.46,0 -47.26,5.56 -65.43,17.12c-18.18,11.54 -32.08,28.22 -41.7,50.02c-9.62,22.03 -14.33,48.55 -14.33,79.33l0,462.92c0,30.58 4.71,56.66 14.33,78.69c9.62,21.8 23.52,38.49 41.7,50.03c18.17,11.55 39.97,17.32 65.43,17.32c25.86,0 47.89,-5.77 66.06,-17.32c18.17,-11.54 32.07,-28.01 41.48,-49.82c9.41,-21.6 14.11,-47.89 14.11,-78.9l0,-33.14l90.02,0l0,33.14c0,48.96 -8.13,90.66 -24.58,125.72c-16.48,34.86 -40.64,61.37 -72.49,79.76c-31.65,18.39 -69.92,27.58 -114.6,27.58zm962.32,-845.64l90.23,0l0,836.23l-90.23,0l0,-836.23zm-175.97,-74.63l442.18,0l0,84.03l-442.18,0l0,-84.03zm1164.6,0l109.05,0l210.39,910.86l-100.06,0l-164.86,-809.94l-164.63,809.94l-100.28,0l210.39,-910.86zm-93.22,605.75l309.39,0l0,84.03l-309.39,0l0,-84.03zm1037.38,214.88l12.62,0c11.33,0 20.95,-2.78 29.51,-8.13c8.34,-5.34 14.75,-13.03 19.24,-22.44c4.7,-9.62 7.06,-20.96 7.06,-33.99l0,-756.07l90.02,0l0,763.75c0,29.08 -5.34,54.96 -16.47,77.19c-11.11,22.46 -26.72,39.57 -46.62,51.75c-20.09,12.19 -43.61,18.17 -70.33,18.17l-25.03,0l0,-90.23zm355.16,-820.63l90.23,0l0,910.86l-90.23,0l0,-910.86zm-234.13,0l289.29,0l0,84.03l-289.29,0l0,-84.03zm1039.95,826.83l190.94,0c18.39,0 34.21,-4.05 47.68,-12.18c13.26,-8.13 23.52,-19.88 30.36,-35.72c6.85,-15.6 10.26,-34.42 10.26,-56.66l0,-163.35c0,-23.1 -3.41,-42.55 -10.26,-58.59c-6.84,-16.24 -16.89,-28.43 -30.15,-36.78c-13.04,-8.34 -29.07,-12.39 -47.89,-12.39l-190.94,0l0,-84.04l186.66,0c38.27,0 71.2,7.49 98.58,22.46c27.35,15.18 48.32,36.98 62.64,65.63c14.33,28.44 21.59,63.09 21.59,103.71l0,164.64c0,39.77 -7.26,73.55 -21.59,101.56c-14.32,27.8 -35.29,49.18 -62.64,63.72c-27.38,14.75 -60.31,22.02 -98.58,22.02l-186.66,0l0,-84.03zm-65.86,-826.83l90.23,0l0,910.86l-90.23,0l0,-910.86z" class="fil2"/>
  </g>
 </g>
</svg>